<?xml version="1.0" encoding="UTF-8"?>
<svg xmlns="http://www.w3.org/2000/svg" xmlns:xlink="http://www.w3.org/1999/xlink" width="252pt" height="252pt" viewBox="0 0 252 252" version="1.1">
<g id="surface1">
<path style=" stroke:none;fill-rule:evenodd;fill:rgb(13.72549%,9.411765%,8.235294%);fill-opacity:1;" d="M 126 0 C 56.40625 0 0 56.40625 0 126 C 0 195.601562 56.40625 252 126 252 C 195.582031 252 252 195.601562 252 126 C 252 56.40625 195.582031 0 126 0 M 126 245.488281 C 60.003906 245.488281 6.511719 191.996094 6.511719 126 C 6.511719 60.003906 60.003906 6.511719 126 6.511719 C 191.996094 6.511719 245.488281 60.003906 245.488281 126 C 245.488281 191.996094 191.996094 245.488281 126 245.488281 "/>
<path style=" stroke:none;fill-rule:nonzero;fill:rgb(13.72549%,9.411765%,8.235294%);fill-opacity:1;" d="M 120.96875 22.613281 C 120.136719 22.613281 119.457031 23.292969 119.457031 24.144531 L 119.457031 42.128906 C 119.457031 42.957031 118.773438 43.640625 117.957031 43.640625 L 109.378906 43.640625 C 108.550781 43.640625 107.867188 42.957031 107.867188 42.128906 L 107.867188 24.144531 C 107.867188 23.292969 107.199219 22.613281 106.347656 22.613281 L 102.726562 22.613281 C 101.898438 22.613281 101.226562 23.292969 101.226562 24.144531 L 101.226562 42.128906 C 101.226562 42.957031 100.535156 43.640625 99.707031 43.640625 L 91.140625 43.640625 C 90.308594 43.640625 89.628906 42.957031 89.628906 42.128906 L 89.628906 24.144531 C 89.628906 23.292969 88.949219 22.613281 88.117188 22.613281 L 84.480469 22.613281 C 83.660156 22.613281 82.980469 23.292969 82.980469 24.144531 L 82.980469 48.769531 C 82.980469 49.609375 83.660156 50.277344 84.480469 50.277344 L 124.59375 50.277344 C 125.425781 50.277344 126.097656 49.609375 126.097656 48.769531 L 126.097656 24.144531 C 126.097656 23.292969 125.425781 22.613281 124.59375 22.613281 Z M 120.96875 22.613281 "/>
<path style=" stroke:none;fill-rule:nonzero;fill:rgb(13.72549%,9.411765%,8.235294%);fill-opacity:1;" d="M 60.070312 77.699219 C 60.886719 77.699219 61.570312 77.019531 61.570312 76.191406 L 61.570312 72.5625 C 61.570312 71.71875 60.886719 71.050781 60.070312 71.050781 L 25.707031 71.050781 C 24.867188 71.050781 24.199219 71.71875 24.199219 72.5625 L 24.199219 76.191406 C 24.199219 77.019531 24.867188 77.699219 25.707031 77.699219 L 30.6875 77.699219 C 31.519531 77.699219 32.199219 78.359375 32.199219 79.199219 L 32.199219 118.007812 C 32.199219 118.847656 31.519531 119.53125 30.6875 119.53125 L 25.707031 119.53125 C 24.867188 119.53125 24.199219 120.199219 24.199219 121.03125 L 24.199219 124.667969 C 24.199219 125.5 24.867188 126.179688 25.707031 126.179688 L 60.070312 126.179688 C 60.886719 126.179688 61.570312 125.5 61.570312 124.667969 L 61.570312 121.03125 C 61.570312 120.199219 60.886719 119.53125 60.070312 119.53125 L 55.078125 119.53125 C 54.246094 119.53125 53.566406 118.847656 53.566406 118.007812 L 53.566406 79.199219 C 53.566406 78.359375 54.246094 77.699219 55.078125 77.699219 Z M 46.917969 118.007812 C 46.917969 118.847656 46.246094 119.53125 45.40625 119.53125 L 40.363281 119.53125 C 39.542969 119.53125 38.851562 118.847656 38.851562 118.007812 L 38.851562 79.199219 C 38.851562 78.359375 39.542969 77.699219 40.363281 77.699219 L 45.40625 77.699219 C 46.246094 77.699219 46.917969 78.359375 46.917969 79.199219 Z M 46.917969 118.007812 "/>
<path style=" stroke:none;fill-rule:nonzero;fill:rgb(13.72549%,9.411765%,8.235294%);fill-opacity:1;" d="M 124.605469 85.648438 L 109.378906 85.648438 C 108.550781 85.648438 107.867188 84.96875 107.867188 84.128906 L 107.867188 79.199219 C 107.867188 78.359375 108.550781 77.699219 109.378906 77.699219 L 124.542969 77.699219 C 125.382812 77.699219 126.0625 77.03125 126.0625 76.191406 L 126.0625 72.5625 C 126.0625 71.71875 125.382812 71.050781 124.542969 71.050781 L 84.542969 71.050781 C 83.710938 71.050781 83.03125 71.71875 83.03125 72.5625 L 83.03125 76.191406 C 83.03125 77.03125 83.710938 77.699219 84.542969 77.699219 L 99.707031 77.699219 C 100.535156 77.699219 101.226562 78.359375 101.226562 79.199219 L 101.226562 84.128906 C 101.226562 84.96875 100.535156 85.648438 99.707031 85.648438 L 84.480469 85.648438 C 83.660156 85.648438 82.980469 86.320312 82.980469 87.148438 L 82.980469 124.445312 C 82.980469 125.285156 83.660156 125.957031 84.480469 125.957031 L 88.117188 125.957031 C 88.957031 125.957031 89.628906 125.285156 89.628906 124.445312 L 89.628906 93.800781 C 89.628906 92.96875 90.308594 92.300781 91.128906 92.300781 L 93.640625 92.300781 C 94.460938 92.300781 95.121094 92.96875 95.121094 93.800781 L 95.121094 124.445312 C 95.121094 125.285156 95.8125 125.957031 96.652344 125.957031 L 100.28125 125.957031 C 101.109375 125.957031 101.792969 125.285156 101.792969 124.445312 L 101.792969 93.800781 C 101.792969 92.96875 102.460938 92.300781 103.300781 92.300781 L 105.792969 92.300781 C 106.621094 92.300781 107.304688 92.96875 107.304688 93.800781 L 107.304688 124.445312 C 107.304688 125.285156 107.984375 125.957031 108.816406 125.957031 L 112.433594 125.957031 C 113.273438 125.957031 113.953125 125.285156 113.953125 124.445312 L 113.953125 93.800781 C 113.953125 92.96875 114.625 92.300781 115.464844 92.300781 L 117.957031 92.300781 C 118.785156 92.300781 119.464844 92.96875 119.464844 93.800781 L 119.464844 124.445312 C 119.464844 125.285156 120.136719 125.957031 120.976562 125.957031 L 124.605469 125.957031 C 125.4375 125.957031 126.105469 125.285156 126.105469 124.445312 L 126.105469 87.148438 C 126.105469 86.320312 125.4375 85.648438 124.605469 85.648438 "/>
<path style=" stroke:none;fill-rule:evenodd;fill:rgb(13.72549%,9.411765%,8.235294%);fill-opacity:1;" d="M 57.578125 36.476562 C 57.578125 28.1875 50.863281 21.472656 42.574219 21.472656 C 34.296875 21.472656 27.582031 28.1875 27.582031 36.476562 C 27.582031 44.757812 34.296875 51.46875 42.574219 51.46875 C 50.863281 51.46875 57.578125 44.757812 57.578125 36.476562 "/>
</g>
</svg>
